<svg xmlns="http://www.w3.org/2000/svg" version="1.1" xmlns:xlink="http://www.w3.org/1999/xlink" xmlns:svgjs="http://svgjs.dev/svgjs" width="1480" height="820" preserveAspectRatio="none" viewBox="0 0 1480 820"><g mask="url(&quot;#SvgjsMask1062&quot;)" fill="none"><rect width="1480" height="820" x="0" y="0" fill="rgba(191, 217, 191, 1)"></rect><path d="M 0,135 C 59.2,152.6 177.6,225.8 296,223 C 414.4,220.2 473.6,123.4 592,121 C 710.4,118.6 769.6,216 888,211 C 1006.4,206 1065.6,86.8 1184,96 C 1302.4,105.2 1420.8,224.8 1480,257L1480 820L0 820z" fill="rgba(255, 250, 240, 1)"></path><path d="M 0,486 C 37,530.8 111,721.4 185,710 C 259,698.6 296,427 370,429 C 444,431 481,688.2 555,720 C 629,751.8 666,568.4 740,588 C 814,607.6 851,840.6 925,818 C 999,795.4 1036,476.6 1110,475 C 1184,473.4 1221,819 1295,810 C 1369,801 1443,506 1480,430L1480 820L0 820z" fill="rgba(255, 249, 204, 1)"></path></g><defs><mask id="SvgjsMask1062"><rect width="1480" height="820" fill="#ffffff"></rect></mask></defs></svg>